<svg width="27" height="47" viewBox="0 0 657 1175" fill="none" xmlns="http://www.w3.org/2000/svg">
<g clip-path="url(#clip0_8_89)">
<path d="M384.001 60.9269L358.501 93.6269L358.101 828.127C358.101 830.427 356.201 832.427 353.801 832.427L138.301 833.127C138.301 833.127 130.901 828.127 130.901 817.827C130.901 807.527 130.201 798.327 130.201 798.227L86.1012 797.127C86.1012 797.127 75.8012 866.027 127.501 873.027C127.501 873.027 127.501 873.027 127.601 873.027H537.601C538.101 873.027 538.901 872.827 539.401 872.727C546.101 871.727 553.501 868.727 561.801 859.727C573.001 847.627 574.101 837.527 574.601 827.827C574.401 798.027 572.201 767.727 573.101 736.227C573.201 732.827 575.301 728.327 577.801 726.127L579.201 724.927C579.301 724.827 579.401 724.727 579.501 724.727C582.801 722.327 633.001 685.327 651.701 604.127C672.401 514.427 624.101 431.727 603.401 397.227C515.801 251.127 451.701 152.427 451.701 152.427V742.127H496.501V304.127C496.501 304.127 534.401 355.827 589.601 462.727C592.801 468.827 627.501 535.127 603.401 611.027C591.501 648.527 548.201 693.827 548.201 693.827C548.201 693.827 534.401 704.127 534.401 724.827V814.427C534.401 814.627 537.801 831.627 520.601 831.627H403.401V92.5269L384.001 60.9269Z" fill="#652672"/>
<path d="M17.7012 1173.23H3.90118V1124.93H17.7012V1173.23Z" fill="#652672"/>
<path d="M104.301 1173.23H91.0012L75.3012 1149.93C74.6012 1148.93 73.9012 1147.83 73.2012 1146.93C73.2012 1148.33 73.2012 1149.83 73.2012 1151.33V1173.23H59.4012V1124.93H72.4012L88.2012 1146.53C88.8012 1147.43 89.5012 1148.33 90.1012 1149.23C90.2012 1147.73 90.3012 1146.33 90.5012 1144.73V1124.93H104.301V1173.23Z" fill="#652672"/>
<path d="M159.801 1174.13C155.701 1174.13 151.901 1173.93 148.601 1173.63L145.501 1173.33V1126.33L148.501 1125.93C152.901 1125.33 157.301 1125.03 161.701 1125.03C171.001 1125.03 177.801 1127.03 182.601 1131.03C187.701 1135.23 190.401 1141.13 190.401 1148.63C190.401 1156.33 187.701 1162.83 182.601 1167.33C177.501 1171.73 169.701 1174.13 159.801 1174.13ZM159.301 1162.83C160.401 1162.83 161.401 1162.83 161.901 1162.83C172.701 1162.83 178.101 1158.03 178.101 1148.63C178.101 1144.93 177.101 1141.93 175.101 1139.93C172.601 1137.43 168.401 1136.03 162.901 1136.03C161.501 1136.03 160.301 1136.13 159.401 1136.13V1162.83H159.301Z" fill="#652672"/>
<path d="M252.501 1174.83C238.201 1174.83 228.301 1164.73 228.301 1150.33C228.301 1135.43 238.501 1125.03 253.201 1125.03C267.501 1125.03 277.401 1135.13 277.401 1149.53C277.401 1164.63 267.401 1174.83 252.501 1174.83ZM252.901 1136.23C244.501 1136.23 241.501 1143.73 241.501 1150.13C241.501 1156.53 245.001 1163.53 252.801 1163.53C260.701 1163.53 264.201 1156.63 264.201 1149.73C264.201 1143.23 260.601 1136.23 252.901 1136.23Z" fill="#652672"/>
<path d="M360.601 1173.23H349.401L333.701 1149.93C333.301 1149.33 332.901 1148.73 332.501 1148.13C332.601 1148.93 332.801 1149.73 333.001 1150.63L333.101 1151.33V1173.23H319.301V1124.93H330.901L346.701 1146.53C346.901 1146.83 347.101 1147.03 347.201 1147.33C347.101 1146.83 347.001 1146.23 346.901 1145.73L346.801 1145.03V1125.03H360.601V1173.23Z" fill="#652672"/>
<path d="M406.101 1125.03H437.101V1135.33H416.401V1142.23H437.101V1152.63H416.401V1160.23H437.101V1173.23H406.101V1125.03Z" fill="#652672"/>
<path d="M494.901 1174.73C489.901 1174.73 484.501 1173.43 481.301 1171.63L478.901 1170.23L482.601 1159.13L486.201 1161.13C488.801 1162.53 492.201 1163.43 495.201 1163.43C496.701 1163.43 501.401 1163.13 501.401 1159.83C501.401 1158.63 501.401 1157.03 495.001 1154.83C491.501 1153.73 480.501 1150.23 480.501 1139.83C480.501 1131.33 488.201 1125.13 498.901 1125.13C505.001 1125.13 508.901 1126.63 510.701 1127.53L513.401 1128.93L509.301 1139.73L505.901 1138.03C504.701 1137.43 502.101 1136.43 498.601 1136.43C495.001 1136.43 493.301 1137.83 493.301 1139.23C493.301 1140.33 493.301 1141.63 500.201 1144.03C506.801 1146.33 514.301 1150.13 514.301 1159.53C514.501 1167.03 508.401 1174.73 494.901 1174.73Z" fill="#652672"/>
<path d="M567.501 1173.23H553.701V1124.93H567.501V1173.23Z" fill="#652672"/>
<path d="M650.501 1173.23H637.501L632.301 1159.43H619.801L614.701 1173.23H601.901L620.201 1124.93H632.101L650.501 1173.23ZM622.901 1151.33H629.301L626.101 1142.83L622.901 1151.33Z" fill="#652672"/>
<path d="M646.401 1079.23V1081.83C643.801 1081.83 642.601 1080.93 641.401 1079.73H559.501H550.901C550.901 1072.73 556.101 1075.43 559.501 1063.23V963.827C556.101 951.627 550.801 954.327 550.901 947.327H599.101C599.101 955.027 592.801 951.027 589.501 967.927V1051.33L638.901 1050.83C649.001 1049.03 648.401 1039.53 654.001 1040.63L646.401 1079.23Z" fill="#652672"/>
<path d="M383.901 1079.23V1081.83C381.301 1081.83 380.101 1080.93 378.901 1079.73H297.001H288.401C288.401 1072.73 293.601 1075.43 297.001 1063.23V963.827C293.601 951.627 288.301 954.327 288.401 947.327H336.701C336.701 955.027 330.401 951.027 327.101 967.927V1051.33L376.501 1050.83C386.601 1049.03 386.001 1039.53 391.601 1040.63L383.901 1079.23Z" fill="#652672"/>
<path d="M126.901 1077.83H78.6012C78.6012 1070.53 84.5012 1073.93 87.8012 1058.93V1023.93L39.4011 1028.93L39.2012 1059.73C42.5012 1073.83 48.3012 1070.63 48.3012 1077.83H0.00114593C0.00114593 1070.33 6.20114 1074.13 9.40114 1057.93V967.027C6.20114 950.827 -0.0988541 954.527 0.00114593 947.127H48.3012C48.3012 954.227 42.6012 951.127 39.3012 965.027L39.4011 1003.03L88.2012 997.827L87.9011 966.027C84.6011 950.927 78.6012 954.427 78.7012 947.127H127.001C127.001 954.527 120.801 950.827 117.601 966.827V1058.03C120.801 1074.13 127.001 1070.43 126.901 1077.83Z" fill="#652672"/>
<path d="M536.501 1073.93L483.201 947.127L465.001 947.227V947.127H454.501C441.201 947.127 454.601 950.627 454.201 957.727L410.801 1071.63C405.101 1078.83 402.601 1074.43 402.601 1079.93H407.401H437.701H443.801C443.801 1076.53 439.901 1077.83 441.601 1071.03L448.601 1054.53L495.101 1051.83L501.601 1071.63C503.601 1079.03 499.001 1074.83 498.801 1080.03H505.101H531.301H536.601H541.601C542.101 1076.93 538.801 1076.03 536.501 1073.93ZM457.801 1031.13L471.301 998.727L484.901 1028.93L457.801 1031.13Z" fill="#652672"/>
<path d="M272.301 1073.93L219.001 947.127L200.801 947.227V947.127H190.301C177.001 947.127 190.401 950.627 190.001 957.727L146.601 1071.63C140.901 1078.83 138.401 1074.43 138.401 1079.93H143.201H173.501H179.601C179.601 1076.53 175.701 1077.83 177.401 1071.03L184.401 1054.53L230.901 1051.83L237.401 1071.63C239.401 1079.03 234.801 1074.83 234.601 1080.03H240.901H267.101H272.401H277.401C277.801 1076.93 274.601 1076.03 272.301 1073.93ZM193.601 1031.13L207.101 998.727L220.701 1028.93L193.601 1031.13Z" fill="#652672"/>
<path d="M255.101 744.627H300.801V188.127L255.101 255.127V744.627Z" fill="#652672"/>
<path d="M353.701 18.2269C305.501 90.3269 257.201 162.427 209.001 234.527C209.001 404.127 209.001 573.827 209.001 743.427C175.401 744.127 141.901 744.727 108.301 745.427C102.801 743.127 95.5012 739.627 87.5012 734.627C85.0012 733.027 72.9012 725.327 59.4012 711.827C46.6012 698.927 39.0012 687.227 36.9012 683.827C30.6012 673.827 27.4012 666.227 22.0012 653.327C13.3012 632.527 10.4012 619.127 9.40118 614.327C6.80118 601.327 6.30118 591.727 5.70118 579.627C4.70118 558.427 5.90118 542.727 6.10118 539.227C6.40118 535.827 7.80118 519.227 12.0012 499.827C19.5012 465.727 31.9012 439.827 42.5012 417.927C57.7012 386.727 71.9012 364.627 88.0012 339.827C103.101 316.527 116.701 297.727 126.401 284.627C126.401 310.627 126.501 336.727 126.501 362.727C118.201 374.027 108.401 388.427 98.7012 406.027C94.9012 412.827 84.8012 431.427 74.0012 458.827C59.3012 496.327 51.0012 517.627 48.9012 548.227C48.0012 561.627 46.4012 589.827 58.3012 622.727C65.5012 642.527 74.6012 656.027 77.7012 660.327C91.8012 680.227 107.901 692.627 118.501 699.627C134.301 699.627 150.201 699.627 166.001 699.627C165.701 540.827 165.401 382.127 165.101 223.327C244.301 102.127 302.801 13.7269 308.801 6.82694C313.201 1.62695 318.301 0.626945 318.301 0.626945C321.701 -0.673055 325.101 0.326945 328.001 1.12694C331.801 2.22694 334.401 4.12695 339.601 7.62695C342.901 9.92694 348.201 13.5269 353.701 18.2269Z" fill="#652672"/>
</g>
<defs>
<clipPath id="clip0_8_89">
<rect width="656.75" height="1174.83" fill="white"/>
</clipPath>
</defs>
</svg>
